HIERARCHY
ROOT Hips
{
 OFFSET 0.000000 0.000000 0.000000
 CHANNELS 6 Xposition Yposition Zposition Yrotation Xrotation Zrotation
 JOINT Chest
 {
  OFFSET 0.000000 10.354800 0.006500
  CHANNELS 3 Yrotation Xrotation Zrotation
  JOINT Chest2
  {
   OFFSET 0.000000 10.435800 -0.013200
   CHANNELS 3 Yrotation Xrotation Zrotation
   JOINT Chest3
   {
    OFFSET 0.000000 10.393700 0.000000
    CHANNELS 3 Yrotation Xrotation Zrotation
    JOINT Chest4
    {
     OFFSET 0.000000 10.383100 0.000000
     CHANNELS 3 Yrotation Xrotation Zrotation
     JOINT Neck
     {
      OFFSET 0.000000 15.694000 0.000000
      CHANNELS 3 Yrotation Xrotation Zrotation
      JOINT Head
      {
       OFFSET 0.000000 9.711000 -0.028000
       CHANNELS 3 Yrotation Xrotation Zrotation
       End Site
       {
        OFFSET 0.000000 18.578700 -0.014800
       }
      }
     }
     JOINT RightCollar
     {
      OFFSET -3.157200 10.367500 0.000000
      CHANNELS 3 Yrotation Xrotation Zrotation
      JOINT RightShoulder
      {
       OFFSET -14.482500 0.000000 0.000000
       CHANNELS 3 Yrotation Xrotation Zrotation
       JOINT RightElbow
       {
        OFFSET 0.000000 -31.707800 0.000000
        CHANNELS 3 Yrotation Xrotation Zrotation
        JOINT RightWrist
        {
         OFFSET 0.000000 -25.659300 0.000000
         CHANNELS 3 Yrotation Xrotation Zrotation
         End Site
         {
          OFFSET 0.000000 -18.994300 0.000000
         }
        }
       }
      }
     }
     JOINT LeftCollar
     {
      OFFSET 3.157200 10.367500 0.000000
      CHANNELS 3 Yrotation Xrotation Zrotation
      JOINT LeftShoulder
      {
       OFFSET 14.482500 0.000000 0.000000
       CHANNELS 3 Yrotation Xrotation Zrotation
       JOINT LeftElbow
       {
        OFFSET 0.000000 -31.707800 0.000000
        CHANNELS 3 Yrotation Xrotation Zrotation
        JOINT LeftWrist
        {
         OFFSET 0.000000 -25.659300 0.000000
         CHANNELS 3 Yrotation Xrotation Zrotation
         End Site
         {
          OFFSET 0.000000 -18.994300 0.000000
         }
        }
       }
      }
     }
    }
   }
  }
 }
 JOINT RightHip
 {
  OFFSET -8.365600 -0.032100 -0.003200
  CHANNELS 3 Yrotation Xrotation Zrotation
  JOINT RightKnee
  {
   OFFSET 0.000000 -43.980000 0.003100
   CHANNELS 3 Yrotation Xrotation Zrotation
   JOINT RightAnkle
   {
    OFFSET 0.000000 -42.882800 0.005200
    CHANNELS 3 Yrotation Xrotation Zrotation
    JOINT RightToe
    {
     OFFSET 0.000000 -4.915500 10.826300
     CHANNELS 3 Yrotation Xrotation Zrotation
     End Site
     {
      OFFSET 0.000000 -1.517500 6.175900
     }
    }
   }
  }
 }
 JOINT LeftHip
 {
  OFFSET 8.365600 -0.032100 -0.003200
  CHANNELS 3 Yrotation Xrotation Zrotation
  JOINT LeftKnee
  {
   OFFSET 0.000000 -43.980000 0.003100
   CHANNELS 3 Yrotation Xrotation Zrotation
   JOINT LeftAnkle
   {
    OFFSET 0.000000 -42.882800 0.005200
    CHANNELS 3 Yrotation Xrotation Zrotation
    JOINT LeftToe
    {
     OFFSET 0.000000 -4.915500 10.826300
     CHANNELS 3 Yrotation Xrotation Zrotation
     End Site
     {
      OFFSET 0.000000 -1.517500 6.175900
     }
    }
   }
  }
 }
}
MOTION
Frames: 13
Frame Time: 0.008333
0.000000 91.618600 0.000000 0.000000 -5.767877 0.000000 0.000000 11.653817 0.000000 0.000000 -5.885947 0.000000 0.000000 -0.000000 0.000000 0.000000 -0.000000 0.000000 0.000000 12.528835 0.000000 0.000000 0.711642 0.000000 0.000000 -0.000000 0.000000 0.000000 0.000000 -90.000000 0.000000 -2.309062 0.000000 0.000000 2.309062 0.000000 0.000000 -0.000000 0.000000 0.000000 -0.000000 90.000000 0.000000 -2.309062 0.000000 0.000000 2.309062 0.000000 0.000000 8.520406 0.000000 0.000000 1.905762 0.000000 -0.000000 -4.658285 0.000000 0.000000 -0.000000 0.000000 0.000000 8.520406 0.000000 0.000000 1.905762 0.000000 -0.000000 -4.658285 0.000000 0.000000 -0.000000 0.000000
0.782399 126.523001 41.169889 174.250561 -20.313981 -1.953221 -2.205352 13.376924 4.261131 -0.224558 1.150204 0.382808 -0.382990 1.950175 0.651818 -2.024391 12.017099 3.855903 -1.743566 17.286122 -1.945571 -1.395387 -7.530767 -1.639652 4.303395 8.157223 -5.150446 -7.176229 -15.189352 -8.278039 -110.329213 -56.381234 132.529684 -22.141961 -2.797125 -25.455211 -3.583360 8.543150 -1.029822 17.218962 -1.343779 0.783146 91.559687 -56.711665 -124.791794 26.205206 5.214633 31.821155 9.989054 -62.319795 0.968066 -113.145345 80.129759 -106.706151 2.944207 -11.935661 -17.339760 0.004594 -0.006191 0.002085 -14.717308 -61.525298 11.534196 78.415310 81.259353 71.932224 -4.650929 -7.430409 1.469193 0.002994 0.000615 0.001360
0.782391 126.522791 41.170481 174.246614 -20.312120 -1.957199 -2.205565 13.378286 4.270053 -0.223796 1.149794 0.383542 -0.382938 1.950804 0.653902 -2.029935 12.019226 3.865060 -1.739473 17.283163 -1.958304 -1.392947 -7.517509 -1.616519 4.315378 8.152838 -5.156232 -7.197618 -15.186660 -8.297668 -110.348253 -56.367359 132.563510 -22.141038 -2.797603 -25.456119 -3.574594 8.536959 -1.043843 17.229289 -1.335259 0.762194 91.689281 -56.741544 -124.857951 26.184035 5.190808 31.855360 9.994920 -62.318860 0.962487 -113.103899 80.124621 -106.659530 2.941215 -11.934136 -17.344559 0.001368 -0.006112 0.000621 -14.711281 -61.531212 11.529305 78.443815 81.256638 71.969920 -4.650574 -7.432861 1.470062 0.002859 0.000204 0.001298
0.783119 126.522682 41.171050 174.247896 -20.310692 -1.968003 -2.208584 13.378910 4.283093 -0.225562 1.153285 0.385998 -0.390856 1.953927 0.662618 -2.024404 12.013946 3.858257 -1.736691 17.290449 -1.943689 -1.387717 -7.511948 -1.613097 4.327806 8.149916 -5.155078 -7.219747 -15.186537 -8.310607 -110.408434 -56.350057 132.640487 -22.150844 -2.780415 -25.478290 -3.559359 8.531087 -1.039042 17.223342 -1.326605 0.744125 91.824750 -56.739456 -124.916339 26.167712 5.163168 31.892904 9.978215 -62.319588 0.978508 -113.065099 80.117420 -106.623106 2.946291 -11.924363 -17.343035 0.000135 -0.007519 0.000061 -14.714315 -61.537912 11.533467 78.501314 81.259162 72.039085 -4.655955 -7.438895 1.470194 0.003670 -0.000225 0.001666
0.783376 126.522710 41.171176 174.247652 -20.311461 -1.976101 -2.210683 13.380664 4.293722 -0.231980 1.154877 0.392082 -0.385777 1.953337 0.658975 -2.025174 12.015576 3.861016 -1.732970 17.297977 -1.928828 -1.385558 -7.514661 -1.624314 4.336302 8.147701 -5.160584 -7.240339 -15.190581 -8.320541 -110.432136 -56.333076 132.677481 -22.146159 -2.775762 -25.493905 -3.548715 8.521643 -1.034657 17.269726 -1.299596 0.651445 91.941683 -56.786947 -125.010750 26.155335 5.130481 31.936725 9.969822 -62.314817 0.981724 -112.999833 80.112502 -106.557205 2.964770 -11.907957 -17.344771 -0.001636 -0.006276 -0.000743 -14.710834 -61.540390 11.528602 78.522899 81.261482 72.071729 -4.654753 -7.443875 1.469089 0.003915 0.000602 0.001778
0.782813 126.522575 41.171583 174.249117 -20.309682 -1.980700 -2.214425 13.379694 4.300108 -0.231712 1.154605 0.392524 -0.385696 1.954038 0.659342 -2.030395 12.013904 3.872052 -1.729772 17.306888 -1.924404 -1.383800 -7.514193 -1.633034 4.348048 8.151128 -5.172770 -7.253204 -15.193791 -8.324333 -110.450009 -56.323110 132.697616 -22.137200 -2.795401 -25.516018 -3.543878 8.519970 -1.050462 17.308689 -1.283725 0.581178 92.070340 -56.805097 -125.106877 26.152098 5.087358 31.993312 9.977741 -62.309375 0.968267 -112.910793 80.103473 -106.462852 2.984344 -11.886873 -17.348340 -0.001572 -0.002828 -0.000714 -14.685187 -61.551075 11.495724 78.536966 81.258329 72.105989 -4.646970 -7.442115 1.468506 0.002253 -0.000637 0.001023
0.782099 126.522460 41.171830 174.249878 -20.308286 -1.983943 -2.214951 13.378561 4.303796 -0.233726 1.153969 0.394204 -0.383989 1.954908 0.658089 -2.034133 12.015614 3.881773 -1.726697 17.327339 -1.905884 -1.380619 -7.514786 -1.642625 4.356467 8.155087 -5.173281 -7.259077 -15.200420 -8.335007 -110.471385 -56.313494 132.715028 -22.139664 -2.793250 -25.534313 -3.540915 8.518433 -1.065053 17.337077 -1.272991 0.518963 92.205572 -56.808311 -125.202010 26.157961 5.031303 32.055851 9.980199 -62.308078 0.962965 -112.855632 80.099908 -106.407150 2.989340 -11.866320 -17.349308 -0.001514 -0.002264 -0.000687 -14.682402 -61.554862 11.491516 78.530944 81.261794 72.099994 -4.640705 -7.442161 1.473153 0.003062 0.000111 0.001390
0.782450 126.522538 41.171625 174.250899 -20.309540 -1.992246 -2.216190 13.378443 4.313012 -0.233422 1.156664 0.393949 -0.385238 1.953068 0.660591 -2.039015 12.016117 3.893861 -1.725108 17.341570 -1.913806 -1.380461 -7.507107 -1.636697 4.366130 8.162691 -5.178712 -7.266885 -15.206207 -8.349617 -110.478746 -56.304227 132.723775 -22.141707 -2.791389 -25.545026 -3.536532 8.520388 -1.085750 17.359163 -1.261384 0.452083 92.347809 -56.811430 -125.298312 26.167711 4.972356 32.111642 9.967289 -62.306076 0.976167 -112.813051 80.098254 -106.366286 2.991023 -11.854392 -17.347322 -0.001603 -0.004171 -0.000728 -14.687588 -61.554498 11.498251 78.555606 81.262138 72.120839 -4.655563 -7.445734 1.482042 -0.000969 0.001742 -0.000440
0.782163 126.522633 41.171062 174.251932 -20.311588 -1.995766 -2.219103 13.380573 4.315855 -0.229543 1.160434 0.394733 -0.387168 1.955728 0.664231 -2.041496 12.010487 3.894211 -1.723973 17.348963 -1.915465 -1.382894 -7.488329 -1.628247 4.370740 8.166474 -5.175466 -7.275938 -15.200779 -8.363675 -110.497937 -56.288720 132.748575 -22.144059 -2.789532 -25.557858 -3.534938 8.520420 -1.091993 17.367941 -1.254391 0.417601 92.489581 -56.780300 -125.381609 26.177800 4.915963 32.157349 9.975519 -62.300590 0.965251 -112.795862 80.101845 -106.341463 2.993278 -11.836092 -17.355598 -0.001236 -0.000900 -0.000561 -14.675193 -61.555777 11.483633 78.574620 81.258037 72.146459 -4.657249 -7.447503 1.484068 -0.001073 0.002688 -0.000487
0.782764 126.522512 41.170998 174.252072 -20.310256 -2.002761 -2.216110 13.383587 4.323507 -0.229145 1.158574 0.395264 -0.384758 1.958531 0.665860 -2.038173 12.012453 3.899980 -1.731193 17.350537 -1.919478 -1.386748 -7.466764 -1.627819 4.362370 8.165657 -5.178517 -7.278293 -15.199529 -8.361476 -110.514560 -56.285333 132.771328 -22.146725 -2.800685 -25.585932 -3.541218 8.511487 -1.103069 17.372909 -1.246341 0.389109 92.565676 -56.781173 -125.434095 26.190231 4.807738 32.197253 9.972165 -62.303610 0.970002 -112.806852 80.105117 -106.346012 2.986222 -11.818829 -17.368673 -0.000803 0.000839 -0.000365 -14.654748 -61.564095 11.472628 78.597317 81.256893 72.178356 -4.661780 -7.447368 1.487646 -0.001378 0.000886 -0.000625
0.782915 126.522286 41.170955 174.260145 -20.307060 -2.008558 -2.217712 13.384386 4.328996 -0.231748 1.156879 0.395140 -0.382613 1.959652 0.666317 -2.037413 12.018498 3.909594 -1.735945 17.369915 -1.928262 -1.391034 -7.461539 -1.631536 4.354792 8.156647 -5.176411 -7.278412 -15.192425 -8.361503 -110.533126 -56.281540 132.789979 -22.144036 -2.798996 -25.600737 -3.561065 8.498709 -1.128645 17.393921 -1.228390 0.331892 92.749211 -56.778414 -125.558276 26.190932 4.776979 32.240215 9.986772 -62.309694 0.951736 -112.839149 80.106180 -106.365338 2.981536 -11.815892 -17.370441 -0.000378 -0.001036 -0.000172 -14.653133 -61.572841 11.470914 78.638488 81.246747 72.217180 -4.672047 -7.445889 1.487657 -0.003622 -0.000914 -0.001644
0.782996 126.522062 41.170711 174.269360 -20.303693 -2.012947 -2.213427 13.384540 4.334224 -0.238448 1.156166 0.394946 -0.382484 1.957437 0.666079 -2.041781 12.018967 3.910987 -1.736589 17.376778 -1.930866 -1.386640 -7.420917 -1.650858 4.356288 8.155800 -5.172195 -7.288122 -15.186461 -8.350614 -110.541843 -56.280031 132.801324 -22.154898 -2.804935 -25.626473 -3.566262 8.496443 -1.132801 17.402412 -1.206216 0.268337 92.931977 -56.780346 -125.682632 26.188625 4.754478 32.277484 9.980052 -62.313188 0.950228 -112.855948 80.111360 -106.381947 2.983749 -11.818566 -17.373940 -0.000386 -0.001101 -0.000175 -14.658213 -61.578243 11.473449 78.649192 81.243557 72.226747 -4.677875 -7.443801 1.487400 -0.002856 -0.000449 -0.001297
0.782399 126.521901 41.169912 174.277301 -20.301879 -2.011943 -2.217568 13.382877 4.331698 -0.238348 1.156729 0.395011 -0.379064 1.957169 0.665807 -2.049074 12.018696 3.910239 -1.735806 17.388234 -1.937562 -1.382449 -7.407180 -1.663671 4.357409 8.156952 -5.168445 -7.299131 -15.182396 -8.336212 -110.517355 -56.265043 132.788751 -22.129649 -2.803765 -25.628762 -3.574198 8.494991 -1.141169 17.416368 -1.164403 0.159225 93.112953 -56.852811 -125.830092 26.183506 4.721648 32.303811 9.990184 -62.316995 0.934345 -112.904644 80.121380 -106.428722 2.970324 -11.829438 -17.373118 -0.001782 -0.002296 -0.000809 -14.652615 -61.581363 11.467665 78.644321 81.240647 72.218671 -4.682931 -7.441359 1.488164 -0.001283 0.000126 -0.000583
